<svg xmlns="http://www.w3.org/2000/svg" width="1024" height="1024" viewBox="0 0 1024 1024">
  <defs>
    <linearGradient id="sky" x1="512" y1="0" x2="512" y2="1024" gradientUnits="userSpaceOnUse">
      <stop stop-color="#AFCFDF"/>
      <stop offset=".46" stop-color="#EAF3F5"/>
      <stop offset=".78" stop-color="#FFF0DE"/>
      <stop offset="1" stop-color="#D9A09B"/>
    </linearGradient>
    <radialGradient id="warm" cx="0" cy="0" r="1" gradientTransform="translate(512 680) rotate(90) scale(330 390)" gradientUnits="userSpaceOnUse">
      <stop stop-color="#FFE4BA" stop-opacity=".72"/>
      <stop offset=".62" stop-color="#F3B6A2" stop-opacity=".2"/>
      <stop offset="1" stop-color="#F3B6A2" stop-opacity="0"/>
    </radialGradient>
    <radialGradient id="quiet" cx="0" cy="0" r="1" gradientTransform="translate(260 238) rotate(42) scale(370)" gradientUnits="userSpaceOnUse">
      <stop stop-color="#FFFFFF" stop-opacity=".42"/>
      <stop offset="1" stop-color="#FFFFFF" stop-opacity="0"/>
    </radialGradient>
    <linearGradient id="house" x1="512" y1="414" x2="512" y2="870" gradientUnits="userSpaceOnUse">
      <stop stop-color="#314761"/>
      <stop offset="1" stop-color="#17263D"/>
    </linearGradient>
    <linearGradient id="window" x1="459" y1="618" x2="570" y2="784" gradientUnits="userSpaceOnUse">
      <stop stop-color="#FFF7D6"/>
      <stop offset=".62" stop-color="#F7C58F"/>
      <stop offset="1" stop-color="#D98D8F"/>
    </linearGradient>
    <filter id="blur" x="-100%" y="-100%" width="300%" height="300%">
      <feGaussianBlur stdDeviation="24"/>
    </filter>
    <filter id="softShadow" x="-60%" y="-60%" width="220%" height="220%">
      <feDropShadow dx="0" dy="24" stdDeviation="32" flood-color="#6B4B57" flood-opacity=".22"/>
    </filter>
    <mask id="moon">
      <rect width="1024" height="1024" fill="black"/>
      <circle cx="728" cy="230" r="76" fill="white"/>
      <circle cx="760" cy="204" r="78" fill="black"/>
    </mask>
  </defs>
  <rect width="1024" height="1024" fill="url(#sky)"/>
  <rect width="1024" height="1024" fill="url(#quiet)"/>
  <rect width="1024" height="1024" fill="url(#warm)"/>
  <circle cx="242" cy="262" r="128" fill="#FFFFFF" opacity=".16" filter="url(#blur)"/>
  <circle cx="728" cy="230" r="90" fill="#FFF9EA" opacity=".2" filter="url(#blur)"/>
  <rect width="1024" height="1024" fill="#FFF8E8" mask="url(#moon)" opacity=".82"/>
  <path d="M246 774C360 718 454 738 512 708C594 666 675 640 778 690" fill="none" stroke="#FFFFFF" stroke-opacity=".34" stroke-width="38" stroke-linecap="round"/>
  <path d="M232 812C360 768 447 797 528 774C620 748 705 724 814 760" fill="none" stroke="#FFF4E6" stroke-opacity=".4" stroke-width="18" stroke-linecap="round"/>
  <g opacity=".62" fill="#FFFFFF">
    <circle cx="180" cy="342" r="2.5"/>
    <circle cx="302" cy="196" r="2"/>
    <circle cx="630" cy="310" r="2"/>
    <circle cx="830" cy="388" r="2.4"/>
  </g>
  <g filter="url(#softShadow)">
    <path d="M306 647L512 466L718 647V823C718 854 693 879 662 879H362C331 879 306 854 306 823V647Z" fill="url(#house)"/>
    <path d="M258 664L512 438L766 664" fill="none" stroke="#263B55" stroke-width="52" stroke-linecap="round" stroke-linejoin="round"/>
    <path d="M306 647L512 466L718 647" fill="none" stroke="#F6D8BF" stroke-opacity=".22" stroke-width="8" stroke-linecap="round" stroke-linejoin="round"/>
    <rect x="452" y="622" width="124" height="164" rx="24" fill="url(#window)"/>
    <path d="M514 628V780M458 704H570" stroke="#6E4B45" stroke-opacity=".45" stroke-width="8" stroke-linecap="round"/>
    <rect x="436" y="606" width="156" height="196" rx="30" fill="none" stroke="#FFF2D4" stroke-opacity=".26" stroke-width="6"/>
  </g>
  <path d="M390 388C348 430 340 475 371 504C406 537 462 508 510 536C554 562 556 606 536 638" fill="none" stroke="#FFFFFF" stroke-opacity=".42" stroke-width="5" stroke-linecap="round" stroke-dasharray="3 18"/>
</svg>
